:SAMPLES-PER-SECOND 30
:FULLY-SPECIFIED
:DEGREES
597
root  18.7943 33.3248 -0.816307 -13.1058 -77.0159 12.8503
RightUpLeg  -9.94513 -10.1204 -7.01399
RightLeg  52.8775 -6.27013 -7.26094
RightFoot  -2.04842 -0.000183639 0.367402
RightToes  -24.8336 -0.11001 -0.214504
Spine  5.22393 -1.10056 -1.55295
Spine1  10.2591 -1.88238 -3.25986
HEad  8.71693 -31.1831 29.2727
LeftShoulder1  0 -2.42657e-020 -4.95415e-022
LeftArm  -57.7014 14.8044 -77.4468
LeftForeArm  67.6727 -11.9043 -2.06582
LeftHand  0.170761 -8.38942 -2.70012
RightShoulder  0 2.42657e-020 1.07489e-018
RightArm  -82.3198 -11.4923 85.8382
RightForeArm  45.6013 9.29291 1.63614
RightHand  -1.21954 15.2169 -8.74446
LeftUpLeg  -11.9538 1.27034 -4.23354
LeftLeg  16.4944 -1.48441 -0.339481
LeftFoot  3.97781 0.00884407 -0.129272
LeftToes  -4.42599 1.33192e-006 1.13262e-007
598
root  19.3886 33.2822 -1.1836 -13.8775 -77.8708 13.9069
RightUpLeg  -5.05645 -7.79363 -7.72439
RightLeg  48.9065 -5.00644 -5.06688
RightFoot  -0.986453 -0.00193942 0.152369
RightToes  -29.4613 -0.140229 -0.248204
Spine  4.81506 -0.816123 -1.5354
Spine1  9.40811 -1.28116 -3.2373
HEad  10.0031 -31.0313 29.3001
LeftShoulder1  0 -2.42657e-020 -4.95415e-022
LeftArm  -62.0231 17.5429 -78.4236
LeftForeArm  68.5274 -12.4166 -2.15779
LeftHand  0.162266 -8.47245 -2.56245
RightShoulder  0 2.42657e-020 1.07489e-018
RightArm  -81.3966 -11.6104 85.3936
RightForeArm  45.964 9.50822 1.67445
RightHand  -1.19622 15.5156 -8.3974
LeftUpLeg  -13.1923 2.49531 -3.85093
LeftLeg  16.2857 -1.89274 -0.425032
LeftFoot  5.19636 0.0124939 -0.202752
LeftToes  -4.92977 1.33192e-006 1.13262e-007
599
root  20.0505 33.1984 -1.61022 -16.304 -79.1716 16.5848
RightUpLeg  -0.312575 -4.47334 -7.93415
RightLeg  43.0162 -4.76206 -3.91867
RightFoot  0.351698 0.00116595 -0.00233879
RightToes  -38.154 -0.203907 -0.304459
Spine  4.52696 -0.415548 -1.58494
Spine1  8.76959 -0.411898 -3.38452
HEad  11.1823 -30.6045 29.421
LeftShoulder1  0 -2.42657e-020 -4.95415e-022
LeftArm  -64.5488 19.8034 -79.1868
LeftForeArm  68.5711 -13.0273 -2.27038
LeftHand  0.179996 -8.67134 -2.7459
RightShoulder  0 2.42657e-020 1.07489e-018
RightArm  -79.809 -11.0543 85.2035
RightForeArm  46.1498 9.97852 1.7592
RightHand  -1.18584 15.8635 -8.12922
LeftUpLeg  -14.6054 4.05113 -3.53733
LeftLeg  16.3619 -2.08744 -0.471463
LeftFoot  6.40103 0.0163234 -0.264482
LeftToes  -5.56153 1.33192e-006 1.13262e-007
600
root  20.7792 33.0757 -2.11329 -19.8491 -80.3829 20.3508
RightUpLeg  4.42618 -0.42737 -7.36961
RightLeg  34.9479 -4.98851 -3.03569
RightFoot  -1.44157 -0.00246098 0.182022
RightToes  -46.6546 -0.273705 -0.349546
Spine  4.33729 -0.133253 -1.66632
Spine1  8.31293 0.252934 -3.65946
HEad  12.3514 -30.0097 29.2947
LeftShoulder1  0 -2.42657e-020 -4.95415e-022
LeftArm  -66.0845 21.5882 -79.7482
LeftForeArm  68.6524 -13.6404 -2.38392
LeftHand  0.190146 -8.93116 -2.80649
RightShoulder  0 2.42657e-020 1.07489e-018
RightArm  -77.1415 -9.96311 85.3656
RightForeArm  45.9027 10.7483 1.8993
RightHand  -1.17644 16.4442 -7.76134
LeftUpLeg  -16.1717 5.13847 -3.1773
LeftLeg  16.5767 -1.90488 -0.437947
LeftFoot  7.73071 0.0191224 -0.283027
LeftToes  -6.56291 1.33192e-006 1.13262e-007
601
root  21.6406 32.9168 -2.69942 -23.417 -81.5027 24.1764
RightUpLeg  8.14566 3.70874 -6.02987
RightLeg  25.9668 -5.5894 -2.28971
RightFoot  -5.11322 0.00778692 0.55202
RightToes  -47.2029 -0.278426 -0.352092
Spine  4.26261 0.0864255 -1.70527
Spine1  8.06754 0.826281 -3.92777
HEad  13.3419 -29.2034 29.067
LeftShoulder1  0 -2.42657e-020 -4.95415e-022
LeftArm  -66.4949 22.6329 -80.1907
LeftForeArm  68.402 -14.4496 -2.53564
LeftHand  0.194546 -9.07755 -2.82246
RightShoulder  0 2.42657e-020 1.07489e-018
RightArm  -73.9901 -8.26008 85.7736
RightForeArm  45.921 11.7117 2.07525
RightHand  -1.1655 17.1403 -7.35506
LeftUpLeg  -18.0756 6.30323 -2.62926
LeftLeg  16.8681 -1.91105 -0.449635
LeftFoot  9.43566 0.0271826 -0.329381
LeftToes  -8.12734 1.33192e-006 1.13262e-007
602
root  22.6164 32.7378 -3.36616 -25.7042 -82.5117 26.6527
RightUpLeg  9.94158 3.43788 -5.54154
RightLeg  19.0907 -4.79658 -1.3203
RightFoot  -9.14125 0.0321964 0.780353
RightToes  -39.2088 -0.212194 -0.310609
Spine  4.44395 0.239963 -1.62309
Spine1  8.32575 1.30068 -4.02922
HEad  13.569 -28.142 28.6607
LeftShoulder1  0 -2.42657e-020 -4.95415e-022
LeftArm  -66.351 22.4595 -80.6424
LeftForeArm  68.176 -15.1241 -2.66304
LeftHand  0.184037 -9.03127 -2.70197
RightShoulder  0 2.42657e-020 1.07489e-018
RightArm  -69.7706 -5.86171 86.1956
RightForeArm  45.5548 12.8399 2.28354
RightHand  -1.16489 17.8931 -7.02194
LeftUpLeg  -19.9131 7.41081 -1.76882
LeftLeg  16.6937 -2.04915 -0.475374
LeftFoot  11.6089 0.0415872 -0.409111
LeftToes  -9.40256 1.33192e-006 1.13262e-007
603
root  23.7127 32.5604 -4.14287 -22.4106 -83.8468 23.5465
RightUpLeg  9.99732 -0.224928 -5.04401
RightLeg  14.4885 -1.67944 -0.319679
RightFoot  -11.4975 -0.00649012 0.313101
RightToes  -34.0037 -0.17244 -0.278807
Spine  4.82841 0.444038 -1.22959
Spine1  8.99471 1.90488 -3.60221
HEad  13.1445 -26.8424 28.1366
LeftShoulder1  0 -2.42657e-020 -4.95415e-022
LeftArm  -65.8154 21.1269 -81.3544
LeftForeArm  68.1076 -15.9163 -2.81326
LeftHand  0.173889 -8.93122 -2.59823
RightShoulder  0 2.42657e-020 1.07489e-018
RightArm  -64.6341 -3.19982 86.3677
RightForeArm  44.8507 14.2716 2.55107
RightHand  -1.14759 18.8002 -6.55595
LeftUpLeg  -21.8173 8.94994 -0.0885174
LeftLeg  16.1508 -2.65431 -0.588596
LeftFoot  14.2018 0.0777049 -0.623775
LeftToes  -10.7359 1.33192e-006 1.13262e-007
604
root  24.8427 32.4414 -4.99598 -3.09924 -85.3002 4.04071
RightUpLeg  8.85971 -0.179405 -1.90584
RightLeg  12.9997 -0.707789 -0.115072
RightFoot  -12.0807 -0.0307524 0.0869335
RightToes  -32.558 -0.161927 -0.269346
Spine  5.5287 0.713841 -0.343994
Spine1  10.334 2.68118 -2.35078
HEad  12.2849 -25.4098 27.6335
LeftShoulder1  0 -2.42657e-020 -4.95415e-022
LeftArm  -64.8708 18.9209 -82.7467
LeftForeArm  67.9487 -17.4962 -3.11666
LeftHand  0.182997 -8.80517 -2.74863
RightShoulder  0 2.42657e-020 1.07489e-018
RightArm  -59.9454 -0.21381 86.0057
RightForeArm  44.5047 15.6996 2.82099
RightHand  -1.15496 19.7728 -6.25173
LeftUpLeg  -23.4399 10.4795 2.93787
LeftLeg  15.6666 -3.65496 -0.777125
LeftFoot  16.6533 0.145952 -0.997198
LeftToes  -12.3539 1.33192e-006 1.13262e-007
605
root  25.8883 32.4929 -5.74377 27.8102 -84.8208 -27.0281
RightUpLeg  6.09603 -2.7954 0.784561
RightLeg  14.7238 2.81355 0.549422
RightFoot  -10.918 -0.0931725 -0.59741
RightToes  -36.1266 -0.188304 -0.292213
Spine  6.25328 0.703667 0.932936
Spine1  11.8806 2.80439 -0.37011
HEad  11.1645 -24.3718 27.335
LeftShoulder1  0 -2.42657e-020 -4.95415e-022
LeftArm  -63.8231 16.0419 -84.9379
LeftForeArm  67.5597 -17.7618 -3.16912
LeftHand  0.150733 -8.35386 -2.43572
RightShoulder  0 2.42657e-020 1.07489e-018
RightArm  -54.6619 2.46277 84.5886
RightForeArm  42.9002 16.9068 3.05406
RightHand  -1.12239 20.5221 -5.82603
LeftUpLeg  -24.7757 11.3419 6.18176
LeftLeg  14.9114 -5.52994 -1.09782
LeftFoot  15.4591 0.195066 -1.43709
LeftToes  -14.2677 1.33192e-006 1.13262e-007
606
root  26.7978 32.696 -6.23582 27.5064 -84.2018 -25.7451
RightUpLeg  3.48249 -3.43035 1.7945
RightLeg  14.8297 2.79139 0.550428
RightFoot  -9.78625 -0.0777614 -0.530799
RightToes  -35.0713 -0.180356 -0.285623
Spine  6.07408 0.229027 1.23162
Spine1  11.6102 1.83757 0.0790235
HEad  12.5033 -24.0529 26.7858
LeftShoulder1  0 -2.42657e-020 -4.95415e-022
LeftArm  -63.3787 14.2613 -86.2381
LeftForeArm  68.1262 -16.3443 -2.89479
LeftHand  0.101863 -8.14085 -1.80283
RightShoulder  0 2.42657e-020 1.07489e-018
RightArm  -51.287 3.36164 84.0183
RightForeArm  43.1786 17.5694 3.18169
RightHand  -1.03541 21.5059 -5.07965
LeftUpLeg  -25.7765 10.6486 6.29035
LeftLeg  12.9889 -5.41586 -0.887678
LeftFoot  12.8487 0.132597 -1.17758
LeftToes  -13.1033 1.33192e-006 1.13262e-007
